<?xml version="1.0" encoding="UTF-8"?>
<!DOCTYPE svg PUBLIC "-//W3C//DTD SVG 1.1//EN" "http://www.w3.org/Graphics/SVG/1.1/DTD/svg11.dtd">
<svg version="1.1" xmlns="http://www.w3.org/2000/svg" xmlns:xlink="http://www.w3.org/1999/xlink" x="0" y="0" width="500" height="500" viewBox="0, 0, 500, 500">
  <g id="Layer_1">
    <path d="M250,500 C111.929,500 0,388.071 0,250 C0,111.929 111.929,0 250,0 C388.071,0 500,111.929 500,250 C500,388.071 388.071,500 250,500 z" fill="#F6C2CD"/>
    <path d="M195.768,103.512 L250.061,157.805 L304.09,103.775 L328.417,127.778 L274.327,181.868 L314.641,222.182 L368.467,168.153 L392.803,192.164 L338.713,246.254 L400,307.542 L376.277,331.915 L314.462,270.505 L274.32,310.647 L335.638,372.168 L311.643,396.487 L250.076,334.921 L188.96,396.441 L164.416,372.221 L225.795,310.842 L185.488,270.535 L124.605,331.823 L100,307.866 L161.409,246.456 L107.41,192.457 L131.352,167.867 L185.675,222.19 L225.804,182.062 L171.774,127.83 L195.768,103.512 z M250.052,206.125 L209.748,246.263 L250.07,286.585 L290.374,246.447 L250.052,206.125 z" fill="#FFFFFF"/>
  </g>
</svg>
