<?xml version="1.0" encoding="UTF-8"?>
<!DOCTYPE svg PUBLIC "-//W3C//DTD SVG 1.1//EN" "http://www.w3.org/Graphics/SVG/1.1/DTD/svg11.dtd">
<svg version="1.1" xmlns="http://www.w3.org/2000/svg" xmlns:xlink="http://www.w3.org/1999/xlink" x="0" y="0" width="500" height="500" viewBox="0, 0, 500, 500">
  <g id="Layer_1">
    <path d="M331.335,482.173 Q333.467,470.354 328.622,448.845 Q323.972,427.143 320.484,398.466 Q316.803,369.594 307.308,360.487 L299.945,358.162 Q283.862,358.356 272.236,359.906 Q260.416,361.262 247.434,360.681 Q242.59,357.387 240.264,352.349 Q226.119,309.526 221.469,261.472 Q220.694,202.954 236.389,150.443 Q239.683,139.786 254.022,137.461 L316.027,139.786 Q321.453,139.011 325.328,131.648 Q335.017,84.756 350.712,37.671 Q352.65,30.695 339.086,19.069 Q325.328,7.249 301.107,1.63 Q276.693,-4.183 245.884,10.737 Q224.375,22.944 206.743,47.553 Q195.504,64.604 188.528,79.331 Q171.089,116.146 160.626,152.187 Q154.038,183.19 150.162,213.418 Q148.031,249.652 149.969,283.368 Q154.038,322.315 161.401,356.418 Q168.183,379.089 179.421,405.441 Q190.854,431.988 217.206,463.378 Q234.451,482.173 263.129,493.799 Q289.481,503.1 309.246,498.45 Q329.01,493.799 331.335,482.173 z" fill="#FA0076"/>
  </g>
</svg>
