<?xml version="1.0" encoding="UTF-8"?>
<!DOCTYPE svg PUBLIC "-//W3C//DTD SVG 1.1//EN" "http://www.w3.org/Graphics/SVG/1.1/DTD/svg11.dtd">
<svg version="1.1" xmlns="http://www.w3.org/2000/svg" xmlns:xlink="http://www.w3.org/1999/xlink" x="0" y="0" viewBox="0, 0, 100, 100">
    <path d="M50.859,0 C68.731,0.257 85.582,9.027 88.442,27.808 C91.507,50.109 78.959,74.264 56.498,72.528 C50.408,72.055 47.853,69.038 43.08,66.139 C40.455,79.907 37.248,93.106 27.748,100 C24.815,79.193 32.053,63.563 35.414,46.973 C29.683,37.326 36.104,17.911 48.192,22.696 C63.065,28.579 35.312,58.562 53.942,62.307 C73.396,66.216 81.337,28.555 69.275,16.307 C51.846,-1.377 18.541,15.904 22.636,41.224 C23.633,47.414 30.028,49.292 25.192,57.835 C14.037,55.362 10.709,46.564 11.137,34.835 C11.827,15.637 28.387,2.195 44.998,0.336 C48.257,0.031 46.305,0.178 50.859,0 z" fill="#FFFFFF"/>
</svg>
