<?xml version="1.0" encoding="UTF-8"?>
<!DOCTYPE svg PUBLIC "-//W3C//DTD SVG 1.1//EN" "http://www.w3.org/Graphics/SVG/1.1/DTD/svg11.dtd">
<svg version="1.1" xmlns="http://www.w3.org/2000/svg" xmlns:xlink="http://www.w3.org/1999/xlink" x="0" y="0" viewBox="0, 0, 100, 100">
    <path d="M50,0 C36.421,0 34.718,0.057 29.385,0.301 C24.063,0.544 20.428,1.389 17.248,2.625 C13.96,3.903 11.172,5.612 8.392,8.392 C5.612,11.172 3.903,13.96 2.625,17.248 C1.389,20.429 0.544,24.063 0.301,29.385 C0.057,34.718 0,36.421 0,50 C0,63.58 0.057,65.282 0.301,70.615 C0.544,75.937 1.389,79.572 2.625,82.752 C3.903,86.04 5.612,88.829 8.392,91.608 C11.172,94.388 13.96,96.098 17.248,97.376 C20.428,98.611 24.063,99.456 29.385,99.7 C34.718,99.943 36.421,100 50,100 C63.579,100 65.282,99.943 70.615,99.7 C75.937,99.456 79.572,98.611 82.752,97.376 C86.04,96.098 88.828,94.388 91.608,91.608 C94.388,88.829 96.097,86.04 97.375,82.752 C98.611,79.572 99.456,75.937 99.699,70.615 C99.943,65.282 100,63.58 100,50 C100,36.421 99.943,34.718 99.699,29.385 C99.456,24.063 98.611,20.429 97.375,17.248 C96.097,13.96 94.388,11.172 91.608,8.392 C88.828,5.612 86.04,3.903 82.752,2.625 C79.572,1.389 75.937,0.544 70.615,0.301 C65.282,0.057 63.579,0 50,0 M50,9.009 C63.351,9.009 64.932,9.06 70.204,9.3 C75.079,9.523 77.727,10.338 79.489,11.022 C81.823,11.929 83.488,13.013 85.238,14.762 C86.988,16.512 88.071,18.178 88.978,20.511 C89.662,22.273 90.477,24.921 90.7,29.796 C90.94,35.068 90.991,36.649 90.991,50 C90.991,63.351 90.94,64.932 90.7,70.204 C90.477,75.079 89.662,77.727 88.978,79.489 C88.071,81.823 86.988,83.488 85.238,85.238 C83.488,86.988 81.823,88.071 79.489,88.978 C77.727,89.663 75.079,90.478 70.204,90.7 C64.933,90.941 63.352,90.991 50,90.991 C36.648,90.991 35.067,90.941 29.796,90.7 C24.921,90.478 22.273,89.663 20.511,88.978 C18.178,88.071 16.512,86.988 14.762,85.238 C13.013,83.488 11.929,81.823 11.022,79.489 C10.338,77.727 9.523,75.079 9.3,70.204 C9.06,64.932 9.009,63.351 9.009,50 C9.009,36.649 9.06,35.068 9.3,29.796 C9.523,24.921 10.338,22.273 11.022,20.511 C11.929,18.178 13.013,16.512 14.762,14.762 C16.512,13.013 18.178,11.929 20.511,11.022 C22.273,10.338 24.921,9.523 29.796,9.3 C35.068,9.06 36.649,9.009 50,9.009" fill="#FFFFFF"/>
    <path d="M50,66.825 C40.795,66.825 33.333,59.363 33.333,50.158 C33.333,40.954 40.795,33.492 50,33.492 C59.205,33.492 66.667,40.954 66.667,50.158 C66.667,59.363 59.205,66.825 50,66.825 M50,24.483 C35.82,24.483 24.324,35.978 24.324,50.158 C24.324,64.339 35.82,75.834 50,75.834 C64.18,75.834 75.676,64.339 75.676,50.158 C75.676,35.978 64.18,24.483 50,24.483" fill="#FFFFFF"/>
    <path d="M82.69,23.468 C82.69,26.782 80.004,29.468 76.69,29.468 C73.377,29.468 70.69,26.782 70.69,23.468 C70.69,20.154 73.377,17.468 76.69,17.468 C80.004,17.468 82.69,20.154 82.69,23.468" fill="#FFFFFF"/>
</svg>
