<?xml version="1.0" encoding="UTF-8"?>
<!DOCTYPE svg PUBLIC "-//W3C//DTD SVG 1.1//EN" "http://www.w3.org/Graphics/SVG/1.1/DTD/svg11.dtd">
<svg version="1.1" xmlns="http://www.w3.org/2000/svg" xmlns:xlink="http://www.w3.org/1999/xlink" x="0" y="0" width="500" height="500" viewBox="0, 0, 500, 500">
  <g id="Layer_1">
    <path d="M277.723,120 L312.792,155.07 C279.325,188.537 208.299,259.575 204.833,263.029 C195.958,271.905 195.958,286.292 204.833,295.167 C213.708,304.042 228.095,304.042 236.971,295.167 C240.425,291.701 311.451,220.675 344.93,187.208 L380,222.277 L380,120 L277.723,120 z" fill="#FFFFFF"/>
    <path d="M345.919,256.381 C339.635,256.381 334.555,261.461 334.555,267.745 L334.555,347.294 L152.728,347.294 L152.728,165.468 L232.277,165.468 C238.55,165.468 243.642,160.388 243.642,154.104 C243.642,147.819 238.55,142.74 232.277,142.74 L152.728,142.74 C140.182,142.74 130,152.911 130,165.468 L130,347.294 C130,359.852 140.182,370.023 152.728,370.023 L334.555,370.023 C347.101,370.023 357.283,359.852 357.283,347.294 L357.283,267.745 C357.283,261.461 352.203,256.381 345.919,256.381 z" fill="#FFFFFF"/>
  </g>
</svg>
