<?xml version="1.0" encoding="UTF-8"?>
<!DOCTYPE svg PUBLIC "-//W3C//DTD SVG 1.1//EN" "http://www.w3.org/Graphics/SVG/1.1/DTD/svg11.dtd">
<svg version="1.1" xmlns="http://www.w3.org/2000/svg" xmlns:xlink="http://www.w3.org/1999/xlink" x="0" y="0" width="25" height="41" viewBox="0, 0, 25, 41">
  <defs>
    <linearGradient id="Gradient_1" gradientUnits="userSpaceOnUse" x1="41.801" y1="39.432" x2="41.801" y2="1.866" gradientTransform="matrix(1, 0, 0, 1, -28.846, -0.287)">
      <stop offset="0" stop-color="#126FC6"/>
      <stop offset="1" stop-color="#4C9CD1"/>
    </linearGradient>
  </defs>
  <g id="Layer_1">
    <path d="M12.415,18.519 C9.049,18.519 6.321,15.861 6.321,12.582 C6.321,9.303 9.049,6.644 12.415,6.644 C15.78,6.644 18.508,9.303 18.508,12.582 C18.508,15.861 15.78,18.519 12.415,18.519 z" fill="#FFFFFF"/>
    <g>
      <path d="M13.044,1.758 C6.471,1.758 1,7.449 1,13.624 C1,16.402 2.564,19.932 3.694,22.37 L13,40.242 L22.262,22.37 C23.392,19.932 25,16.579 25,13.624 C25,7.449 19.617,1.758 13.044,1.758 z M13.044,8.913 C15.628,8.93 17.723,11.035 17.723,13.623 C17.723,16.211 15.628,18.286 13.044,18.302 C10.46,18.285 8.365,16.212 8.365,13.623 C8.365,11.035 10.46,8.93 13.044,8.913 z" fill="url(#Gradient_1)"/>
      <path d="M13.044,1.758 C6.471,1.758 1,7.449 1,13.624 C1,16.402 2.564,19.932 3.694,22.37 L13,40.242 L22.262,22.37 C23.392,19.932 25,16.579 25,13.624 C25,7.449 19.617,1.758 13.044,1.758 z M13.044,8.913 C15.628,8.93 17.723,11.035 17.723,13.623 C17.723,16.211 15.628,18.286 13.044,18.302 C10.46,18.285 8.365,16.212 8.365,13.623 C8.365,11.035 10.46,8.93 13.044,8.913 z" fill-opacity="0" stroke="#3378A7" stroke-width="1.1" stroke-linecap="round"/>
    </g>
    <path d="M13.031,2.865 C7.087,2.865 2.093,8.084 2.093,13.615 C2.093,15.974 3.536,19.447 4.656,21.865 L4.687,21.896 L13,37.865 L21.25,21.896 L21.281,21.865 C22.416,19.417 23.906,16.159 23.906,13.615 C23.906,8.077 18.975,2.865 13.031,2.865 z M13.031,7.834 C16.199,7.855 18.812,10.435 18.812,13.615 C18.812,16.795 16.199,19.376 13.031,19.396 C9.863,19.376 7.281,16.786 7.281,13.615 C7.281,10.443 9.863,7.854 13.031,7.834 z" fill-opacity="0" stroke="#FFFFFF" stroke-width="1.1" stroke-opacity="0.122" stroke-linecap="round"/>
  </g>
</svg>
