<?xml version="1.0" encoding="UTF-8"?>
<!DOCTYPE svg PUBLIC "-//W3C//DTD SVG 1.1//EN" "http://www.w3.org/Graphics/SVG/1.1/DTD/svg11.dtd">
<svg version="1.1" xmlns="http://www.w3.org/2000/svg" xmlns:xlink="http://www.w3.org/1999/xlink" x="0" y="0" viewBox="0, 0, 650, 100">
    <path d="M54.4,15.963 C54.4,2.088 40.226,0.092 31.342,0.092 C20.961,0.092 14.373,2.787 7.686,5.582 C7.686,6.58 9.882,8.277 10.88,8.277 C12.178,8.277 16.27,4.384 24.654,2.887 C15.871,19.955 5.49,52.296 3.494,58.884 C2.994,60.58 2.096,62.976 2.096,64.573 C2.096,67.268 4.691,69.364 7.985,69.364 C10.98,59.083 13.874,48.004 16.969,37.224 C19.165,37.224 21.86,37.124 24.455,37.124 C35.834,37.124 49.608,38.821 49.608,49.701 C49.608,61.778 32.839,73.357 9.882,73.357 C3.094,73.357 1.397,72.359 0.499,72.359 C0.2,72.359 0,72.459 0,72.658 C0,78.348 3.793,80.643 11.08,80.643 C25.952,80.643 54.3,70.961 54.3,51.497 C54.3,45.209 51.305,36.625 31.542,35.427 C41.823,33.73 54.4,29.039 54.4,15.963 z M31.542,2.188 C40.126,2.188 48.411,4.783 48.411,15.164 C48.411,29.737 32.141,34.429 17.568,34.928 C21.061,23.05 24.854,11.671 29.645,2.288 C30.244,2.188 30.843,2.188 31.542,2.188 z" fill="#333333"/>
    <path d="M102.012,55.989 C99.416,61.479 96.921,63.575 94.126,63.575 C90.633,63.575 87.139,60.381 87.139,55.29 C87.139,50 91.032,45.209 91.032,42.713 C91.032,41.516 90.134,38.821 87.638,38.821 C87.339,38.821 87.139,38.821 86.939,38.92 C86.341,37.723 85.143,36.824 82.647,36.824 C70.769,36.824 58.492,55.889 58.492,66.47 C58.492,71.56 61.387,75.154 66.477,75.154 C73.464,75.154 79.753,68.366 83.945,58.584 C85.941,63.176 89.635,65.571 93.328,65.571 C96.622,65.571 100.415,63.675 103.309,56.987 z M68.673,70.861 C66.278,70.861 64.88,68.865 64.88,65.771 C64.88,58.185 72.965,40.717 84.244,40.717 C83.146,42.414 82.348,45.309 82.348,49.8 C82.348,52.096 82.548,53.893 82.947,55.49 C79.353,64.074 73.165,70.861 68.673,70.861 z" fill="#333333"/>
    <path d="M96.322,71.261 C97.42,72.758 99.516,73.457 101.612,73.457 C106.803,64.673 115.986,48.802 124.271,48.802 C126.566,48.802 128.263,50 128.263,53.693 C128.263,58.385 125.369,63.475 125.369,67.568 C125.369,71.261 127.664,73.956 132.356,73.956 C139.842,73.956 145.432,66.869 149.624,57.087 L148.526,55.789 C144.833,63.176 139.542,71.361 134.552,71.361 C132.855,71.361 131.557,70.362 131.557,67.568 C131.557,62.677 135.65,57.985 135.65,51.797 C135.65,47.305 133.454,42.813 128.263,42.813 C120.677,42.813 112.792,52.296 107.502,60.381 C109.298,54.891 110.696,49.301 110.696,47.205 C110.696,45.608 109.797,44.61 108.001,44.61 C106.104,44.61 104.208,45.808 103.409,46.706 C103.309,55.39 96.322,70.063 96.322,71.261 z" fill="#333333"/>
    <path d="M161.003,40.318 C161.003,38.621 160.104,37.323 158.607,37.323 C154.515,37.323 152.119,49.701 147.627,57.885 L148.526,59.383 C149.424,57.786 151.221,55.091 153.217,51.497 C151.52,61.479 149.125,69.664 146.529,76.052 C143.934,77.35 142.038,78.148 140.141,79.246 C132.755,83.338 127.564,89.926 127.564,94.817 C127.564,97.712 129.361,99.908 132.755,99.908 C140.84,99.908 147.528,87.93 152.019,75.553 C158.108,71.959 166.692,68.865 171.683,56.987 L170.385,56.288 C164.696,66.769 158.707,69.364 153.018,72.758 C157.908,58.385 161.003,43.312 161.003,40.318 z M131.857,96.514 C130.958,96.514 130.16,95.915 130.16,94.119 C130.16,89.926 135.15,84.237 145.232,79.246 C140.041,90.725 134.452,96.514 131.857,96.514 z M160.204,28.34 C163.498,28.34 166.792,25.645 166.792,22.65 C166.792,20.754 165.395,19.856 163.498,19.856 C160.304,19.856 156.212,22.151 156.212,25.146 C156.212,27.242 158.108,28.34 160.204,28.34 z" fill="#333333"/>
    <path d="M210.911,55.989 C208.315,61.479 205.82,63.575 203.025,63.575 C199.532,63.575 196.038,60.381 196.038,55.29 C196.038,50 199.931,45.209 199.931,42.713 C199.931,41.516 199.033,38.821 196.537,38.821 C196.238,38.821 196.038,38.821 195.838,38.92 C195.24,37.723 194.042,36.824 191.546,36.824 C179.668,36.824 167.391,55.889 167.391,66.47 C167.391,71.56 170.286,75.154 175.376,75.154 C182.363,75.154 188.652,68.366 192.844,58.584 C194.84,63.176 198.533,65.571 202.227,65.571 C205.521,65.571 209.314,63.675 212.208,56.987 z M177.572,70.861 C175.177,70.861 173.779,68.865 173.779,65.771 C173.779,58.185 181.864,40.717 193.143,40.717 C192.045,42.414 191.247,45.309 191.247,49.8 C191.247,52.096 191.447,53.893 191.846,55.49 C188.252,64.074 182.064,70.861 177.572,70.861 z" fill="#333333"/>
    <path d="M236.563,44.909 C232.77,52.396 224.585,70.961 218.397,70.961 C215.103,70.961 214.803,65.971 214.803,64.274 C214.803,57.586 219.295,47.604 221.491,44.211 C220.393,43.013 218.497,42.214 217.798,42.214 C214.803,42.214 209.014,57.287 209.014,64.873 C209.014,70.263 212.009,74.954 216.5,74.954 C221.491,74.954 225.883,69.165 229.576,62.577 C229.177,64.274 228.877,65.971 228.877,67.568 C228.877,71.66 230.574,74.954 235.865,74.954 C242.951,74.954 251.635,67.468 255.928,56.688 L254.63,55.789 C249.739,66.07 242.153,71.959 237.961,71.959 C235.565,71.959 234.667,70.362 234.667,67.967 C234.667,61.279 241.354,48.603 241.354,47.505 C241.354,45.808 237.661,45.109 236.563,44.909 z" fill="#333333"/>
    <path d="M253.831,60.98 C255.928,57.386 259.621,49.701 262.715,41.815 C265.21,43.612 268.305,45.109 268.305,49.401 C268.305,54.691 262.815,62.178 262.815,68.067 C262.815,71.959 265.61,74.555 270.101,74.555 C278.586,74.555 287.17,65.571 290.963,57.087 L289.665,56.089 C287.17,61.878 278.985,70.961 272.697,70.961 C271.099,70.961 269.702,70.362 269.702,67.967 C269.702,63.775 274.693,57.187 274.693,51.098 C274.693,42.614 264.512,40.917 264.512,37.224 C264.512,36.824 265.61,34.229 265.61,33.53 C265.61,32.832 265.61,31.135 264.212,31.135 C263.114,31.135 260.02,33.93 260.02,37.922 C260.02,38.92 260.419,39.719 261.018,40.318 C258.123,48.802 254.73,55.789 252.933,59.283 z" fill="#333333"/>
    <path d="M357.141,2.488 C361.832,2.488 364.228,4.883 364.228,8.976 C364.228,14.166 360.534,18.758 355.843,22.85 C356.642,24.547 358.039,26.044 359.536,26.044 C362.83,26.044 367.522,18.458 367.522,10.972 C367.522,4.085 363.529,0.192 356.143,0.192 C344.264,0.192 335.58,10.273 335.58,20.854 C335.58,26.443 337.976,32.333 343.166,36.625 C328.793,38.022 317.314,50.2 317.314,62.477 C317.314,72.359 324.8,80.643 336.778,80.643 C350.154,80.643 360.934,70.362 367.921,56.787 L366.523,55.789 C361.233,67.168 349.954,77.25 339.373,77.25 C329.991,77.25 326.597,69.364 326.597,62.776 C326.597,52.196 335.281,39.819 348.656,37.623 C343.865,33.53 342.867,27.342 342.867,22.551 C342.867,11.671 347.858,2.488 357.141,2.488 z" fill="#333333"/>
    <path d="M370.117,77.15 C372.512,74.056 377.603,67.568 383.193,60.88 C384.091,67.967 385.788,74.555 391.677,74.555 C398.664,74.555 406.35,65.471 409.244,56.887 L408.246,55.889 C405.551,61.778 399.063,70.961 394.172,70.961 C389.281,70.961 389.581,62.377 388.782,54.292 C395.47,46.506 401.958,39.919 404.254,39.919 C404.254,39.22 402.357,38.821 401.758,38.821 C399.962,38.821 394.372,43.911 388.183,50.399 C387.185,45.109 385.089,40.917 379.899,40.917 C371.314,40.917 369.218,50.399 365.525,57.486 L366.424,59.083 C370.616,51.697 373.411,44.81 378.302,44.81 C381.396,44.81 381.995,50.2 382.693,56.388 C374.908,65.072 367.921,74.056 367.921,76.351 C367.921,77.35 368.32,77.849 368.919,77.849 C369.318,77.849 369.717,77.649 370.117,77.15 z" fill="#333333"/>
    <path d="M418.627,74.555 C432.402,74.555 442.184,59.882 442.184,49.501 C442.184,42.713 437.991,38.122 432.102,38.122 C424.317,38.122 418.228,46.207 414.834,52.795 C416.232,46.307 417.13,41.216 417.13,39.32 C417.13,37.024 415.732,34.728 412.339,34.728 C410.742,34.728 410.542,35.227 410.442,36.425 C405.651,76.451 401.559,79.645 396.867,96.115 C396.767,96.514 398.265,99.908 399.962,99.908 C400.361,99.908 400.86,99.708 401.159,99.409 C403.455,97.213 408.745,78.747 413.437,58.784 C415.932,52.994 423.019,42.713 430.006,42.713 C433.999,42.713 435.696,46.207 435.696,50.399 C435.696,60.58 426.013,72.259 415.333,72.259 C413.936,72.259 412.838,72.259 412.838,72.758 C412.838,73.557 415.134,74.555 418.627,74.555 z" fill="#333333"/>
    <path d="M480.114,7.479 C480.114,4.684 478.916,0.092 476.82,0.092 C470.032,0.092 445.777,45.508 445.777,64.673 C445.777,70.562 448.073,74.954 453.762,74.954 C460.949,74.954 467.237,67.967 472.528,56.588 L471.03,55.789 C467.537,63.575 461.947,71.76 456.657,71.76 C453.762,71.76 452.265,69.264 452.265,64.074 C452.265,61.08 452.764,57.586 453.563,53.993 C468.136,41.915 480.114,16.362 480.114,7.479 z M476.321,8.177 C476.62,8.177 477.019,8.477 477.019,9.774 C477.019,16.462 466.04,38.92 454.461,50.599 C459.951,31.334 473.626,8.177 476.321,8.177 z" fill="#333333"/>
    <path d="M496.583,55.29 C496.583,50 500.476,45.209 500.476,42.713 C500.476,41.516 499.578,38.821 497.082,38.821 C496.783,38.821 496.583,38.821 496.384,38.92 C495.785,37.723 494.587,36.824 492.092,36.824 C480.213,36.824 467.936,55.889 467.936,66.47 C467.936,71.56 470.831,75.154 475.921,75.154 C482.908,75.154 489.197,68.366 493.389,58.584 C494.986,61.678 498.08,63.176 501.873,63.176 C509.459,63.176 516.447,50.898 519.441,41.815 C521.936,43.612 525.031,45.109 525.031,49.401 C525.031,54.691 519.541,62.178 519.541,68.067 C519.541,71.959 522.336,74.555 526.827,74.555 C535.312,74.555 543.896,65.571 547.689,57.087 L546.391,56.089 C543.896,61.878 535.711,70.961 529.423,70.961 C527.826,70.961 526.428,70.362 526.428,67.967 C526.428,63.775 531.419,57.187 531.419,51.098 C531.419,42.614 521.238,40.917 521.238,37.224 C521.238,36.824 522.336,34.229 522.336,33.53 C522.336,32.832 522.336,31.135 520.938,31.135 C519.84,31.135 516.746,33.93 516.746,37.922 C516.746,38.92 517.145,39.719 517.744,40.318 C515.349,49.102 507.663,60.78 502.472,60.78 C498.28,60.78 496.583,58.983 496.583,55.29 z M478.117,70.861 C475.722,70.861 474.324,68.865 474.324,65.771 C474.324,58.185 482.409,40.717 493.689,40.717 C492.591,42.414 491.792,45.309 491.792,49.8 C491.792,52.096 491.992,53.893 492.391,55.49 C488.798,64.074 482.609,70.861 478.117,70.861 z" fill="#333333"/>
    <path d="M574.539,42.115 C574.539,37.224 571.445,36.026 568.351,36.026 C556.572,36.026 542.998,52.895 542.998,64.773 C542.998,71.261 547.09,76.351 555.175,76.351 C565.057,76.351 575.438,68.666 580.828,56.688 L579.63,55.789 C574.639,65.372 565.755,73.457 557.271,73.457 C551.083,73.457 549.386,69.165 549.386,65.072 C549.386,64.074 549.486,62.776 549.785,61.479 C561.164,60.381 574.539,52.296 574.539,42.115 z M568.051,39.12 C569.748,39.12 570.147,39.919 570.147,41.416 C570.147,50 557.371,57.087 550.284,59.582 C552.979,50.1 561.663,39.12 568.051,39.12 z" fill="#333333"/>
    <path d="M578.732,60.98 C580.828,57.386 584.521,49.701 587.615,41.815 C590.111,43.612 593.205,45.109 593.205,49.401 C593.205,54.691 587.715,62.178 587.715,68.067 C587.715,71.959 590.51,74.555 595.002,74.555 C603.486,74.555 612.07,65.571 615.863,57.087 L614.565,56.089 C612.07,61.878 603.885,70.961 597.597,70.961 C596,70.961 594.602,70.362 594.602,67.967 C594.602,63.775 599.593,57.187 599.593,51.098 C599.593,42.614 589.412,40.917 589.412,37.224 C589.412,36.824 590.51,34.229 590.51,33.53 C590.51,32.832 590.51,31.135 589.112,31.135 C588.014,31.135 584.92,33.93 584.92,37.922 C584.92,38.92 585.319,39.719 585.918,40.318 C583.024,48.802 579.63,55.789 577.833,59.283 z" fill="#333333"/>
    <path d="M620.654,61.678 C628.041,50.898 650,7.978 650,2.388 C650,1.09 649.102,0.092 648.004,0.092 C642.514,0.092 633.53,23.449 626.144,42.713 C623.948,48.403 620.654,56.887 620.654,61.678 z M617.76,72.958 C620.355,72.958 622.95,70.562 622.95,68.566 C622.95,66.769 621.952,66.17 620.355,66.17 C617.76,66.17 614.565,68.067 614.565,70.263 C614.565,72.159 616.063,72.958 617.76,72.958 z" fill="#333333"/>
</svg>
